; NON-PLATED HOLES START AT T1
; THROUGH (PLATED) HOLES START AT T100
M48
INCH
T1C0.064972
T2C0.086614
T100C0.039370
T101C0.035000
T102C0.031497
T103C0.051056
T104C0.038000
T105C0.051083
%
T2
X001299Y001337
X023299Y017837
T100
X005846Y017450
X006846Y017450
X018203Y017344
X019203Y017344
X007846Y017450
X017203Y017344
T101
X014299Y011837
X010299Y011837
T102
X008783Y011837
X007799Y011837
T103
X020299Y014837
X019299Y014820
X021299Y014854
X018299Y014802
T104
X000799Y013337
X013799Y002837
X007799Y004837
X018201Y017342
X019196Y017342
X017196Y017342
X000799Y014337
X013799Y000839
X013799Y006837
X000799Y010337
X007799Y006837
X007799Y002837
X013799Y004837
X007799Y003837
X013799Y007837
X000799Y007337
X005849Y017448
X007799Y000837
X013799Y005837
X007799Y001837
X007849Y017448
X013799Y001837
X000799Y004337
X000799Y003337
X000799Y011337
X006853Y017448
X007799Y007837
X013799Y003837
X007799Y005837
X000799Y006337
T105
X018699Y000908
X020699Y000943
X022698Y000978
X017699Y000891
X021698Y000961
X019699Y000926
T00
M30
